<mxfile host="app.diagrams.net" modified="2021-08-19T02:16:42.215Z" agent="5.0 (Windows NT 10.0; Win64; x64) AppleWebKit/537.36 (KHTML, like Gecko) Chrome/92.0.4515.159 Safari/537.36" etag="-7yrxtN1HAhr0FaqpNav" version="14.9.4" type="github">
  <diagram id="FkdGeQBSonSTlXjmpzyH" name="第 1 页">
    <mxGraphModel dx="2473" dy="1308" grid="1" gridSize="10" guides="1" tooltips="1" connect="1" arrows="1" fold="1" page="0" pageScale="1" pageWidth="827" pageHeight="1169" math="0" shadow="0">
      <root>
        <mxCell id="0" />
        <mxCell id="1" parent="0" />
        <mxCell id="m8ClAyKZfbKNbTJmOmOb-1" value="Start" style="strokeWidth=2;html=1;shape=mxgraph.flowchart.start_1;whiteSpace=wrap;" vertex="1" parent="1">
          <mxGeometry x="210" y="-60" width="100" height="60" as="geometry" />
        </mxCell>
        <mxCell id="m8ClAyKZfbKNbTJmOmOb-3" value="&lt;h1&gt;Demand&lt;/h1&gt;&lt;p&gt;&lt;b&gt;1.&amp;nbsp;起机要求：&lt;/b&gt;&lt;/p&gt;&lt;p&gt;&lt;span&gt;&lt;span style=&quot;white-space: pre&quot;&gt;	&lt;/span&gt;1）低压：AC高于170v起机，低于160v关机&lt;/span&gt;&lt;/p&gt;&lt;p&gt;&lt;span&gt;&lt;span style=&quot;white-space: pre&quot;&gt;	&lt;/span&gt;2）高压：AC高于280v关机，低于270v起机&lt;/span&gt;&lt;/p&gt;&lt;p&gt;&lt;span&gt;&lt;span style=&quot;white-space: pre&quot;&gt;	&lt;/span&gt;3）起机时先开LLC，延时300ms在启动PFC&lt;br&gt;&lt;/span&gt;&lt;/p&gt;&lt;p&gt;&lt;span&gt;&lt;span style=&quot;white-space: pre&quot;&gt;	&lt;/span&gt;4)&amp;nbsp;&amp;nbsp;&lt;br&gt;&lt;/span&gt;&lt;/p&gt;&lt;p&gt;&lt;span&gt;&lt;b&gt;2. AC掉电要求：&lt;/b&gt;&lt;/span&gt;&lt;/p&gt;&lt;p&gt;&lt;span&gt;&lt;span style=&quot;white-space: pre&quot;&gt;&lt;span style=&quot;white-space: pre&quot;&gt;	&lt;/span&gt;1)  检测到AC掉电后立马出书AC Falut信号，延长45ms再关闭LLC, PFC	&lt;/span&gt;&lt;br&gt;&lt;/span&gt;&lt;/p&gt;&lt;p&gt;&lt;span&gt;&lt;span style=&quot;white-space: pre&quot;&gt;	&lt;/span&gt;2)&amp;nbsp; AC掉电5s后如果检查到电压正常，则正常启机&lt;br&gt;&lt;/span&gt;&lt;/p&gt;&lt;p&gt;&lt;span&gt;&lt;span style=&quot;white-space: pre&quot;&gt;	&lt;/span&gt;3）&lt;br&gt;&lt;/span&gt;&lt;/p&gt;" style="text;html=1;strokeColor=none;fillColor=none;spacing=5;spacingTop=-20;whiteSpace=wrap;overflow=hidden;rounded=0;" vertex="1" parent="1">
          <mxGeometry x="-620" y="-180" width="500" height="300" as="geometry" />
        </mxCell>
      </root>
    </mxGraphModel>
  </diagram>
</mxfile>
